<?xml version="1.0" encoding="UTF-8"?>
<!DOCTYPE svg PUBLIC "-//W3C//DTD SVG 1.1//EN" "http://www.w3.org/Graphics/SVG/1.1/DTD/svg11.dtd">
<svg xmlns="http://www.w3.org/2000/svg" version="1.1" width="567px" height="440px" style="shape-rendering:geometricPrecision; text-rendering:geometricPrecision; image-rendering:optimizeQuality; fill-rule:evenodd; clip-rule:evenodd" xmlns:xlink="http://www.w3.org/1999/xlink">
<g><path style="opacity:1" fill="#192f56" d="M 523.5,111.5 C 521.801,111.34 520.134,111.506 518.5,112C 518.833,112.333 519.167,112.667 519.5,113C 516.203,112.816 514.203,114.316 513.5,117.5C 511.591,118.348 509.591,118.682 507.5,118.5C 506.757,121.57 504.757,123.236 501.5,123.5C 501.5,124.5 501.5,125.5 501.5,126.5C 489.26,135.3 476.26,143.133 462.5,150C 460.963,151.11 460.297,152.61 460.5,154.5C 459.305,154.322 458.138,153.989 457,153.5C 454.037,155.06 451.204,156.727 448.5,158.5C 452.167,157.833 455.833,157.167 459.5,156.5C 458.426,157.885 457.093,159.051 455.5,160C 456.833,160.667 456.833,161.333 455.5,162C 454.667,162.167 453.833,162.333 453,162.5C 451.876,161.516 450.376,160.849 448.5,160.5C 446.084,160.875 443.75,161.541 441.5,162.5C 440.833,162.333 440.167,162.167 439.5,162C 440.623,160.956 441.956,160.29 443.5,160C 439.588,159.069 436.088,159.903 433,162.5C 431.989,161.663 430.822,161.33 429.5,161.5C 429.649,162.552 429.483,163.552 429,164.5C 428.123,159.621 425.623,155.787 421.5,153C 419.527,152.505 417.527,152.338 415.5,152.5C 415.5,151.5 415.5,150.5 415.5,149.5C 419.24,149.241 422.906,149.574 426.5,150.5C 428.093,152.806 429.593,155.139 431,157.5C 432.152,155.234 432.652,152.9 432.5,150.5C 431.431,150.36 430.264,150.36 429,150.5C 428.51,149.207 428.343,147.873 428.5,146.5C 425.641,146.592 423.141,146.925 421,147.5C 420.683,145.699 420.016,145.366 419,146.5C 418.311,145.643 417.478,144.977 416.5,144.5C 413.601,145.642 410.601,146.308 407.5,146.5C 424.421,136.701 441.755,127.368 459.5,118.5C 470.149,125.285 477.149,122.618 480.5,110.5C 479.575,105.733 476.908,102.233 472.5,100C 465.589,98.7886 460.589,101.289 457.5,107.5C 455.692,106.082 455.025,104.082 455.5,101.5C 452.679,101.316 451.012,102.649 450.5,105.5C 452.592,107.789 452.926,110.289 451.5,113C 450.216,113.684 449.049,113.517 448,112.5C 448.263,111.049 448.096,109.716 447.5,108.5C 445.156,109.783 442.49,109.783 439.5,108.5C 439.5,109.5 439.5,110.5 439.5,111.5C 436.171,111.989 433.171,112.156 430.5,112C 429.483,110.951 429.316,109.784 430,108.5C 437.471,107.754 437.304,106.421 429.5,104.5C 431.857,102.648 434.523,101.481 437.5,101C 439.052,99.2884 440.385,97.455 441.5,95.5C 461.228,84.976 480.895,74.1426 500.5,63C 512.833,54.5732 524.333,45.0732 535,34.5C 540.435,26.2161 545.268,17.5494 549.5,8.5C 559.176,36.478 557.01,63.478 543,89.5C 537.698,97.9645 531.198,105.298 523.5,111.5 Z"/></g>
<g><path style="opacity:1" fill="#2aa7da" d="M 84.5,77.5 C 82.4086,77.6816 80.4086,77.3482 78.5,76.5C 78.0894,77.2624 77.9227,78.2624 78,79.5C 76.6932,78.2283 75.1932,77.2283 73.5,76.5C 73.7093,75.914 74.0426,75.414 74.5,75C 71.7708,74.9953 69.7708,73.8287 68.5,71.5C 66.5283,72.3052 65.0283,73.6385 64,75.5C 63.224,72.3514 61.724,71.8514 59.5,74C 60.1667,74.3333 60.8333,74.6667 61.5,75C 57.8888,75.767 54.8888,77.6003 52.5,80.5C 51.3348,79.5089 50.1681,78.5089 49,77.5C 45.1181,81.0243 40.6181,83.3576 35.5,84.5C 33.6161,84.2837 31.9494,83.617 30.5,82.5C 29.7189,83.7287 29.2189,85.062 29,86.5C 26.9781,83.8114 24.6448,81.4781 22,79.5C 21.5,79.8333 21,80.1667 20.5,80.5C 23.6585,84.6275 24.3252,88.9609 22.5,93.5C 23.2209,95.7738 24.5543,97.6071 26.5,99C 25.8288,99.9862 25.8288,101.153 26.5,102.5C 15.2241,89.9961 8.05747,75.3295 5,58.5C 4.33333,47.1667 4.33333,35.8333 5,24.5C 6.04875,18.6339 7.54875,12.9672 9.5,7.5C 12.5847,13.3381 15.4181,19.3381 18,25.5C 22.1218,31.2905 26.6218,36.7905 31.5,42C 40.5112,49.3329 49.8445,56.3329 59.5,63C 68.2592,67.3702 76.5925,72.2035 84.5,77.5 Z"/></g>
<g><path style="opacity:1" fill="#153157" d="M 338.5,131.5 C 327.679,132.495 316.679,132.828 305.5,132.5C 305.198,135.059 305.532,137.393 306.5,139.5C 306.5,139.833 306.5,140.167 306.5,140.5C 306.905,144.048 306.405,147.381 305,150.5C 304.667,147.833 304.333,145.167 304,142.5C 293.073,134.746 281.906,132.246 270.5,135C 270.833,135.333 271.167,135.667 271.5,136C 269.888,136.72 268.388,136.554 267,135.5C 263.654,137.591 260.154,139.257 256.5,140.5C 256.649,141.552 256.483,142.552 256,143.5C 255.819,140.305 255.319,137.305 254.5,134.5C 243.659,133.833 232.659,133.167 221.5,132.5C 240.849,106.472 260.683,80.8055 281,55.5C 295.002,74.1598 309.336,92.4931 324,110.5C 329.046,117.375 333.88,124.375 338.5,131.5 Z"/></g>
<g><path style="opacity:1" fill="#219ace" d="M 84.5,77.5 C 120.863,95.5153 157.196,113.849 193.5,132.5C 204.302,138.134 213.802,145.468 222,154.5C 232.075,170.616 234.908,187.95 230.5,206.5C 230.5,204.167 230.5,201.833 230.5,199.5C 221.983,199.826 213.65,199.493 205.5,198.5C 214.167,198.5 222.833,198.5 231.5,198.5C 231.5,197.167 231.5,195.833 231.5,194.5C 223.648,194.825 215.982,194.492 208.5,193.5C 215.833,193.5 223.167,193.5 230.5,193.5C 231.213,186.733 230.046,180.733 227,175.5C 226.667,171.833 226.333,168.167 226,164.5C 223.782,163.076 222.282,161.076 221.5,158.5C 218.506,160.066 217.506,159.399 218.5,156.5C 217.343,154.322 216.01,152.322 214.5,150.5C 213.702,152.078 213.202,153.744 213,155.5C 212.075,154.953 211.242,154.287 210.5,153.5C 212.256,151.809 212.756,149.809 212,147.5C 209.746,144.726 206.913,143.059 203.5,142.5C 203.5,141.5 203.5,140.5 203.5,139.5C 200.8,138.484 198.134,138.484 195.5,139.5C 194.31,137.547 192.976,135.713 191.5,134C 188.46,133.404 185.794,132.237 183.5,130.5C 183.5,131.5 183.5,132.5 183.5,133.5C 187.485,133.629 188.818,135.463 187.5,139C 186.5,139.667 185.5,139.667 184.5,139C 183.859,136.87 182.526,135.37 180.5,134.5C 179.069,137.273 179.736,139.439 182.5,141C 180.432,141.687 178.432,141.52 176.5,140.5C 175.17,142.347 175.503,143.847 177.5,145C 175.536,145.624 173.869,145.124 172.5,143.5C 168.587,144.062 167.921,145.562 170.5,148C 175.642,149.598 180.475,151.764 185,154.5C 187.034,153.138 189.201,152.138 191.5,151.5C 191.895,154.523 190.895,155.523 188.5,154.5C 187.705,156.495 187.039,158.495 186.5,160.5C 184.37,158.873 182.37,157.04 180.5,155C 155.463,141.994 130.463,128.994 105.5,116C 103.968,112.694 102.801,109.194 102,105.5C 97.5905,100.648 92.0905,99.1476 85.5,101C 81.0019,104.831 79.5019,109.664 81,115.5C 83.1019,117.095 84.6019,119.095 85.5,121.5C 83.5713,122.006 81.9047,123.006 80.5,124.5C 79.0897,122.045 76.9231,121.045 74,121.5C 70.2408,122.129 66.7408,123.462 63.5,125.5C 62.8333,125.333 62.1667,125.167 61.5,125C 62.9733,124.29 63.6399,123.124 63.5,121.5C 61.3193,121.716 59.6526,120.883 58.5,119C 60.5854,116.878 62.5854,114.711 64.5,112.5C 64,112.167 63.5,111.833 63,111.5C 61.4029,112.885 59.5695,113.551 57.5,113.5C 57.607,115.903 56.607,117.736 54.5,119C 56.1667,120.167 57.8333,121.333 59.5,122.5C 57.5,123.833 55.5,123.833 53.5,122.5C 50.6629,120 47.9962,117.333 45.5,114.5C 45.6667,114.167 45.8333,113.833 46,113.5C 47.4411,114.26 48.9411,114.926 50.5,115.5C 51.6956,115.154 51.6956,114.654 50.5,114C 52.1341,113.506 53.8008,113.34 55.5,113.5C 55.5,112.5 55.5,111.5 55.5,110.5C 52.8728,111.092 50.2062,111.425 47.5,111.5C 47.6495,110.448 47.4828,109.448 47,108.5C 44.6026,110.782 41.7693,112.116 38.5,112.5C 33.9104,109.914 29.9104,106.58 26.5,102.5C 25.8288,101.153 25.8288,99.9862 26.5,99C 24.5543,97.6071 23.2209,95.7738 22.5,93.5C 24.3252,88.9609 23.6585,84.6275 20.5,80.5C 21,80.1667 21.5,79.8333 22,79.5C 24.6448,81.4781 26.9781,83.8114 29,86.5C 29.2189,85.062 29.7189,83.7287 30.5,82.5C 31.9494,83.617 33.6161,84.2837 35.5,84.5C 40.6181,83.3576 45.1181,81.0243 49,77.5C 50.1681,78.5089 51.3348,79.5089 52.5,80.5C 54.8888,77.6003 57.8888,75.767 61.5,75C 60.8333,74.6667 60.1667,74.3333 59.5,74C 61.724,71.8514 63.224,72.3514 64,75.5C 65.0283,73.6385 66.5283,72.3052 68.5,71.5C 69.7708,73.8287 71.7708,74.9953 74.5,75C 74.0426,75.414 73.7093,75.914 73.5,76.5C 75.1932,77.2283 76.6932,78.2283 78,79.5C 77.9227,78.2624 78.0894,77.2624 78.5,76.5C 80.4086,77.3482 82.4086,77.6816 84.5,77.5 Z"/></g>
<g><path style="opacity:1" fill="#152e55" d="M 441.5,95.5 C 440.385,97.455 439.052,99.2884 437.5,101C 434.523,101.481 431.857,102.648 429.5,104.5C 437.304,106.421 437.471,107.754 430,108.5C 429.316,109.784 429.483,110.951 430.5,112C 433.171,112.156 436.171,111.989 439.5,111.5C 439.5,110.5 439.5,109.5 439.5,108.5C 442.49,109.783 445.156,109.783 447.5,108.5C 448.096,109.716 448.263,111.049 448,112.5C 449.049,113.517 450.216,113.684 451.5,113C 452.926,110.289 452.592,107.789 450.5,105.5C 451.012,102.649 452.679,101.316 455.5,101.5C 455.025,104.082 455.692,106.082 457.5,107.5C 458.303,112.079 456.637,115.246 452.5,117C 427.802,130.015 403.135,143.015 378.5,156C 370.167,168.333 361.833,180.667 353.5,193C 345.507,193.5 337.507,193.666 329.5,193.5C 328.102,174.807 334.102,158.974 347.5,146C 353.986,140.588 360.986,135.922 368.5,132C 392.744,119.572 417.078,107.406 441.5,95.5 Z"/></g>
<g><path style="opacity:0.995" fill="#4a566e" d="M 523.5,111.5 C 516.542,116.619 509.709,121.952 503,127.5C 502.617,126.944 502.117,126.611 501.5,126.5C 501.5,125.5 501.5,124.5 501.5,123.5C 504.757,123.236 506.757,121.57 507.5,118.5C 509.591,118.682 511.591,118.348 513.5,117.5C 514.203,114.316 516.203,112.816 519.5,113C 519.167,112.667 518.833,112.333 518.5,112C 520.134,111.506 521.801,111.34 523.5,111.5 Z"/></g>
<g><path style="opacity:0.075" fill="#70839a" d="M 338.5,131.5 C 339.043,131.56 339.376,131.893 339.5,132.5C 328.52,133.499 317.52,133.832 306.5,133.5C 306.5,135.5 306.5,137.5 306.5,139.5C 305.532,137.393 305.198,135.059 305.5,132.5C 316.679,132.828 327.679,132.495 338.5,131.5 Z"/></g>
<g><path style="opacity:1" fill="#18436f" d="M 306.5,140.5 C 309.146,156.981 311.479,173.648 313.5,190.5C 311.883,189.411 311.05,187.744 311,185.5C 310.667,181.167 310.333,176.833 310,172.5C 309.667,174.167 309.333,175.833 309,177.5C 307.164,175.396 304.998,175.062 302.5,176.5C 300.833,178.667 299.167,180.833 297.5,183C 293.867,184.37 290.533,186.204 287.5,188.5C 286.914,188.291 286.414,187.957 286,187.5C 285.667,185.167 285.333,182.833 285,180.5C 284.828,187.346 284.328,194.013 283.5,200.5C 283.5,193.833 283.5,187.167 283.5,180.5C 281.833,180.5 280.167,180.5 278.5,180.5C 277.662,180.842 277.328,181.508 277.5,182.5C 276.539,184.265 276.205,186.265 276.5,188.5C 272.173,185.994 267.507,184.328 262.5,183.5C 261.661,179.687 259.327,177.187 255.5,176C 256.308,175.692 256.975,175.192 257.5,174.5C 254.705,172.485 254.039,169.985 255.5,167C 254.726,164.595 254.226,162.095 254,159.5C 253.477,164.728 252.977,169.728 252.5,174.5C 252.848,176.697 253.848,178.53 255.5,180C 254.751,181.734 254.251,183.567 254,185.5C 252.886,181.701 251.553,181.701 250,185.5C 249.24,189.819 248.573,194.152 248,198.5C 247.33,201.174 246.163,203.507 244.5,205.5C 246.6,191.781 249.1,178.114 252,164.5C 253.494,154.55 254.327,144.55 254.5,134.5C 255.319,137.305 255.819,140.305 256,143.5C 256.483,142.552 256.649,141.552 256.5,140.5C 260.154,139.257 263.654,137.591 267,135.5C 268.388,136.554 269.888,136.72 271.5,136C 271.167,135.667 270.833,135.333 270.5,135C 281.906,132.246 293.073,134.746 304,142.5C 304.333,145.167 304.667,147.833 305,150.5C 306.405,147.381 306.905,144.048 306.5,140.5 Z M 279.5,148.5 C 280.5,148.5 281.5,148.5 282.5,148.5C 282.658,151.361 281.992,154.028 280.5,156.5C 281.992,158.972 282.658,161.639 282.5,164.5C 281.5,164.5 280.5,164.5 279.5,164.5C 279.5,159.167 279.5,153.833 279.5,148.5 Z M 278.5,180.5 C 280.167,180.5 281.833,180.5 283.5,180.5C 283.5,187.167 283.5,193.833 283.5,200.5C 281.833,200.5 280.167,200.5 278.5,200.5C 278.5,193.833 278.5,187.167 278.5,180.5 Z"/></g>
<g><path style="opacity:1" fill="#2ba2d5" d="M 407.5,146.5 C 398.157,150.327 389.324,154.993 381,160.5C 372.612,173.453 364.112,186.286 355.5,199C 347.173,199.5 338.84,199.666 330.5,199.5C 330.5,201.833 330.5,204.167 330.5,206.5C 329.515,202.366 329.182,198.032 329.5,193.5C 337.507,193.666 345.507,193.5 353.5,193C 361.833,180.667 370.167,168.333 378.5,156C 403.135,143.015 427.802,130.015 452.5,117C 456.637,115.246 458.303,112.079 457.5,107.5C 460.589,101.289 465.589,98.7886 472.5,100C 476.908,102.233 479.575,105.733 480.5,110.5C 477.149,122.618 470.149,125.285 459.5,118.5C 441.755,127.368 424.421,136.701 407.5,146.5 Z"/></g>
<g><path style="opacity:1" fill="#14325c" d="M 465.5,104.5 C 473.483,104.161 476.15,107.828 473.5,115.5C 465.454,119.048 461.954,116.382 463,107.5C 464.045,106.627 464.878,105.627 465.5,104.5 Z"/></g>
<g><path style="opacity:1" fill="#1f88bb" d="M 85.5,121.5 C 90.6909,123.388 95.3576,122.555 99.5,119C 100.5,118.333 101.5,118.333 102.5,119C 126.095,131.989 149.761,144.989 173.5,158C 175.608,158.36 177.608,159.027 179.5,160C 187.906,172 195.906,184.167 203.5,196.5C 202.178,196.67 201.011,196.337 200,195.5C 198.494,197.174 196.661,198.174 194.5,198.5C 194.576,196.077 193.576,194.244 191.5,193C 193.456,190.408 192.956,187.908 190,185.5C 187.33,186.224 185.83,187.891 185.5,190.5C 183.654,190.222 182.32,190.889 181.5,192.5C 185.387,195.152 185.221,197.152 181,198.5C 180.51,199.793 180.343,201.127 180.5,202.5C 172.568,193.725 164.735,184.725 157,175.5C 158.341,171.391 158.674,167.057 158,162.5C 152.919,156.007 146.752,154.84 139.5,159C 135.114,165.855 135.78,172.189 141.5,178C 145.5,178.333 149.5,178.667 153.5,179C 159.048,185.709 164.381,192.542 169.5,199.5C 169.565,199.938 169.399,200.272 169,200.5C 166.657,197.723 163.99,195.39 161,193.5C 160.097,194.701 158.931,195.535 157.5,196C 156.919,196.893 156.585,197.893 156.5,199C 158.764,200.979 160.097,203.479 160.5,206.5C 142.88,200.567 125.546,193.734 108.5,186C 106.187,185.338 103.854,184.838 101.5,184.5C 101.77,172.812 96.1037,168.645 84.5,172C 78.8842,177.086 78.0509,182.919 82,189.5C 83.4998,191.469 85.3331,192.802 87.5,193.5C 85.1432,193.337 82.8098,193.503 80.5,194C 77.9309,195.878 78.2643,197.378 81.5,198.5C 84.6026,198.077 87.436,197.077 90,195.5C 91.53,196.92 93.3633,197.92 95.5,198.5C 92.0042,200.007 88.5042,200.34 85,199.5C 83.5732,201.584 81.9065,201.584 80,199.5C 76.896,199.851 77.0626,200.351 80.5,201C 79.944,201.383 79.6107,201.883 79.5,202.5C 40.4781,188.038 20.4781,159.705 19.5,117.5C 20.8734,117.343 22.2068,117.51 23.5,118C 26.177,121.009 29.177,123.676 32.5,126C 56.9363,139.758 82.7696,150.592 110,158.5C 110.5,158.333 111,158.167 111.5,158C 96.7699,150.416 82.4366,142.083 68.5,133C 67.1667,132.667 65.8333,132.333 64.5,132C 55.3605,126.013 46.6938,119.513 38.5,112.5C 41.7693,112.116 44.6026,110.782 47,108.5C 47.4828,109.448 47.6495,110.448 47.5,111.5C 50.2062,111.425 52.8728,111.092 55.5,110.5C 55.5,111.5 55.5,112.5 55.5,113.5C 53.8008,113.34 52.1341,113.506 50.5,114C 51.6956,114.654 51.6956,115.154 50.5,115.5C 48.9411,114.926 47.4411,114.26 46,113.5C 45.8333,113.833 45.6667,114.167 45.5,114.5C 47.9962,117.333 50.6629,120 53.5,122.5C 55.5,123.833 57.5,123.833 59.5,122.5C 57.8333,121.333 56.1667,120.167 54.5,119C 56.607,117.736 57.607,115.903 57.5,113.5C 59.5695,113.551 61.4029,112.885 63,111.5C 63.5,111.833 64,112.167 64.5,112.5C 62.5854,114.711 60.5854,116.878 58.5,119C 59.6526,120.883 61.3193,121.716 63.5,121.5C 63.6399,123.124 62.9733,124.29 61.5,125C 62.1667,125.167 62.8333,125.333 63.5,125.5C 66.7408,123.462 70.2408,122.129 74,121.5C 76.9231,121.045 79.0897,122.045 80.5,124.5C 81.9047,123.006 83.5713,122.006 85.5,121.5 Z"/></g>
<g><path style="opacity:1" fill="#1a87bb" d="M 208.5,193.5 C 200.436,183.053 193.102,172.053 186.5,160.5C 187.039,158.495 187.705,156.495 188.5,154.5C 190.895,155.523 191.895,154.523 191.5,151.5C 189.201,152.138 187.034,153.138 185,154.5C 180.475,151.764 175.642,149.598 170.5,148C 167.921,145.562 168.587,144.062 172.5,143.5C 173.869,145.124 175.536,145.624 177.5,145C 175.503,143.847 175.17,142.347 176.5,140.5C 178.432,141.52 180.432,141.687 182.5,141C 179.736,139.439 179.069,137.273 180.5,134.5C 182.526,135.37 183.859,136.87 184.5,139C 185.5,139.667 186.5,139.667 187.5,139C 188.818,135.463 187.485,133.629 183.5,133.5C 183.5,132.5 183.5,131.5 183.5,130.5C 185.794,132.237 188.46,133.404 191.5,134C 192.976,135.713 194.31,137.547 195.5,139.5C 198.134,138.484 200.8,138.484 203.5,139.5C 203.5,140.5 203.5,141.5 203.5,142.5C 206.913,143.059 209.746,144.726 212,147.5C 212.756,149.809 212.256,151.809 210.5,153.5C 211.242,154.287 212.075,154.953 213,155.5C 213.202,153.744 213.702,152.078 214.5,150.5C 216.01,152.322 217.343,154.322 218.5,156.5C 217.506,159.399 218.506,160.066 221.5,158.5C 222.282,161.076 223.782,163.076 226,164.5C 226.333,168.167 226.667,171.833 227,175.5C 230.046,180.733 231.213,186.733 230.5,193.5C 223.167,193.5 215.833,193.5 208.5,193.5 Z"/></g>
<g><path style="opacity:1" fill="#19598e" d="M 279.5,148.5 C 279.5,153.833 279.5,159.167 279.5,164.5C 280.5,164.5 281.5,164.5 282.5,164.5C 282.658,161.639 281.992,158.972 280.5,156.5C 281.992,154.028 282.658,151.361 282.5,148.5C 283.29,149.609 283.79,150.942 284,152.5C 285.65,152.068 287.15,150.735 288.5,148.5C 291.373,149.775 294.373,150.608 297.5,151C 297.167,151.333 296.833,151.667 296.5,152C 297.499,155.655 298.499,159.322 299.5,163C 298.077,167.448 295.744,171.448 292.5,175C 289.549,175.226 287.049,176.392 285,178.5C 283.234,177.767 281.401,177.433 279.5,177.5C 279.762,176.022 279.429,174.689 278.5,173.5C 277.548,175.045 277.215,176.712 277.5,178.5C 276.448,178.649 275.448,178.483 274.5,178C 268.864,174.017 265.198,168.684 263.5,162C 264.481,159.51 264.648,157.01 264,154.5C 265.737,150.923 268.571,149.256 272.5,149.5C 272.616,142.96 274.116,142.293 277,147.5C 277.333,152.5 277.667,157.5 278,162.5C 278.174,157.649 278.674,152.982 279.5,148.5 Z M 279.5,148.5 C 280.5,148.5 281.5,148.5 282.5,148.5C 282.658,151.361 281.992,154.028 280.5,156.5C 281.992,158.972 282.658,161.639 282.5,164.5C 281.5,164.5 280.5,164.5 279.5,164.5C 279.5,159.167 279.5,153.833 279.5,148.5 Z"/></g>
<g><path style="opacity:1" fill="#132e55" d="M 459.5,156.5 C 461.814,155.179 464.147,155.179 466.5,156.5C 468.924,153.747 471.59,153.247 474.5,155C 472.167,156.167 469.833,157.333 467.5,158.5C 465.899,157.835 464.399,157.501 463,157.5C 462.5,158 462,158.5 461.5,159C 464.816,162.206 468.149,162.206 471.5,159C 473.167,158.333 474.833,158.333 476.5,159C 475.833,159.667 475.167,160.333 474.5,161C 477.245,161.053 479.245,162.22 480.5,164.5C 476.957,165.341 473.457,166.341 470,167.5C 467.244,166.305 465.744,167.305 465.5,170.5C 463.5,170.833 461.5,171.167 459.5,171.5C 459.5,173.167 459.5,174.833 459.5,176.5C 458.735,179.096 458.401,181.763 458.5,184.5C 438.968,191.264 419.635,198.597 400.5,206.5C 390.326,219.17 379.992,231.67 369.5,244C 359.839,244.5 350.172,244.666 340.5,244.5C 339.442,243.4 338.608,242.066 338,240.5C 337.637,237.456 337.137,234.456 336.5,231.5C 336.5,230.167 336.5,228.833 336.5,227.5C 346.855,227.832 357.188,227.499 367.5,226.5C 380.714,210.574 394.048,194.741 407.5,179C 419.134,180.021 424.967,174.854 425,163.5C 420.775,156.655 414.942,154.822 407.5,158C 404.41,160.016 402.743,162.849 402.5,166.5C 403.137,169.386 403.97,172.053 405,174.5C 391.876,190.532 378.376,206.365 364.5,222C 354.506,222.5 344.506,222.666 334.5,222.5C 332.04,217.559 330.707,212.225 330.5,206.5C 330.5,204.167 330.5,201.833 330.5,199.5C 338.84,199.666 347.173,199.5 355.5,199C 364.112,186.286 372.612,173.453 381,160.5C 389.324,154.993 398.157,150.327 407.5,146.5C 410.601,146.308 413.601,145.642 416.5,144.5C 417.478,144.977 418.311,145.643 419,146.5C 420.016,145.366 420.683,145.699 421,147.5C 423.141,146.925 425.641,146.592 428.5,146.5C 428.343,147.873 428.51,149.207 429,150.5C 430.264,150.36 431.431,150.36 432.5,150.5C 432.652,152.9 432.152,155.234 431,157.5C 429.593,155.139 428.093,152.806 426.5,150.5C 422.906,149.574 419.24,149.241 415.5,149.5C 415.5,150.5 415.5,151.5 415.5,152.5C 417.527,152.338 419.527,152.505 421.5,153C 425.623,155.787 428.123,159.621 429,164.5C 429.483,163.552 429.649,162.552 429.5,161.5C 430.822,161.33 431.989,161.663 433,162.5C 436.088,159.903 439.588,159.069 443.5,160C 441.956,160.29 440.623,160.956 439.5,162C 440.167,162.167 440.833,162.333 441.5,162.5C 443.75,161.541 446.084,160.875 448.5,160.5C 450.376,160.849 451.876,161.516 453,162.5C 453.833,162.333 454.667,162.167 455.5,162C 456.833,161.333 456.833,160.667 455.5,160C 457.093,159.051 458.426,157.885 459.5,156.5 Z M 460.5,154.5 C 460.167,155.167 459.833,155.833 459.5,156.5C 455.833,157.167 452.167,157.833 448.5,158.5C 451.204,156.727 454.037,155.06 457,153.5C 458.138,153.989 459.305,154.322 460.5,154.5 Z"/></g>
<g><path style="opacity:1" fill="#1977aa" d="M 203.5,196.5 C 204.5,196.833 205.167,197.5 205.5,198.5C 213.65,199.493 221.983,199.826 230.5,199.5C 230.5,201.833 230.5,204.167 230.5,206.5C 229.336,211.828 228.336,217.162 227.5,222.5C 216.813,222.832 206.146,222.499 195.5,221.5C 190.251,215.318 185.251,208.985 180.5,202.5C 180.343,201.127 180.51,199.793 181,198.5C 185.221,197.152 185.387,195.152 181.5,192.5C 182.32,190.889 183.654,190.222 185.5,190.5C 185.83,187.891 187.33,186.224 190,185.5C 192.956,187.908 193.456,190.408 191.5,193C 193.576,194.244 194.576,196.077 194.5,198.5C 196.661,198.174 198.494,197.174 200,195.5C 201.011,196.337 202.178,196.67 203.5,196.5 Z"/></g>
<g><path style="opacity:0.071" fill="#a6b3c2" d="M 278.5,180.5 C 278.5,187.167 278.5,193.833 278.5,200.5C 280.167,200.5 281.833,200.5 283.5,200.5C 281.735,201.461 279.735,201.795 277.5,201.5C 277.5,195.167 277.5,188.833 277.5,182.5C 277.328,181.508 277.662,180.842 278.5,180.5 Z"/></g>
<g><path style="opacity:1" fill="#35c9ef" d="M 186.5,160.5 C 193.102,172.053 200.436,183.053 208.5,193.5C 215.982,194.492 223.648,194.825 231.5,194.5C 231.5,195.833 231.5,197.167 231.5,198.5C 222.833,198.5 214.167,198.5 205.5,198.5C 205.167,197.5 204.5,196.833 203.5,196.5C 195.906,184.167 187.906,172 179.5,160C 177.608,159.027 175.608,158.36 173.5,158C 149.761,144.989 126.095,131.989 102.5,119C 101.5,118.333 100.5,118.333 99.5,119C 95.3576,122.555 90.6909,123.388 85.5,121.5C 84.6019,119.095 83.1019,117.095 81,115.5C 79.5019,109.664 81.0019,104.831 85.5,101C 92.0905,99.1476 97.5905,100.648 102,105.5C 102.801,109.194 103.968,112.694 105.5,116C 130.463,128.994 155.463,141.994 180.5,155C 182.37,157.04 184.37,158.873 186.5,160.5 Z"/></g>
<g><path style="opacity:1" fill="#1b98c8" d="M 88.5,104.5 C 94.0595,103.734 97.3928,106.067 98.5,111.5C 96.1881,117.24 92.3548,118.574 87,115.5C 84.6892,111.374 85.1892,107.707 88.5,104.5 Z"/></g>
<g><path style="opacity:1" fill="#133056" d="M 276.5,188.5 C 276.66,190.199 276.494,191.866 276,193.5C 275.086,192.346 274.253,192.513 273.5,194C 273.767,198.011 275.6,201.511 279,204.5C 280.799,204.279 282.632,203.946 284.5,203.5C 286.823,204.994 287.156,206.828 285.5,209C 286.167,210.667 286.833,212.333 287.5,214C 287.285,215.908 286.285,217.074 284.5,217.5C 282.167,217.5 279.833,217.5 277.5,217.5C 277.756,221.269 277.423,224.936 276.5,228.5C 275.834,232.353 275.167,236.353 274.5,240.5C 271.898,240.17 269.231,240.67 266.5,242C 262.946,246.379 258.613,249.879 253.5,252.5C 246.219,268.605 248.552,282.938 260.5,295.5C 261.58,298.326 262.58,301.159 263.5,304C 261.851,306.648 259.851,308.981 257.5,311C 256.333,313.833 255.167,316.667 254,319.5C 253.834,330.198 252.667,340.865 250.5,351.5C 246.199,358.447 242.199,365.447 238.5,372.5C 237.675,373.386 236.675,373.719 235.5,373.5C 234.707,381.876 234.54,390.209 235,398.5C 237.529,404.421 239.863,410.421 242,416.5C 248.173,422.756 255.673,425.423 264.5,424.5C 264.5,424.833 264.5,425.167 264.5,425.5C 222.5,425.5 180.5,425.5 138.5,425.5C 148.69,409.794 159.523,394.461 171,379.5C 203.673,325.201 228.173,267.201 244.5,205.5C 246.163,203.507 247.33,201.174 248,198.5C 248.573,194.152 249.24,189.819 250,185.5C 251.553,181.701 252.886,181.701 254,185.5C 254.251,183.567 254.751,181.734 255.5,180C 253.848,178.53 252.848,176.697 252.5,174.5C 252.977,169.728 253.477,164.728 254,159.5C 254.226,162.095 254.726,164.595 255.5,167C 254.039,169.985 254.705,172.485 257.5,174.5C 256.975,175.192 256.308,175.692 255.5,176C 259.327,177.187 261.661,179.687 262.5,183.5C 267.507,184.328 272.173,185.994 276.5,188.5 Z"/></g>
<g><path style="opacity:1" fill="#36c5ed" d="M 160.5,206.5 C 170.249,219.506 180.582,232.006 191.5,244C 201.577,244.807 211.577,244.64 221.5,243.5C 220.669,246.659 219.669,249.659 218.5,252.5C 218.5,251.5 218.5,250.5 218.5,249.5C 208.478,249.832 198.478,249.499 188.5,248.5C 184.488,243.16 180.155,238.16 175.5,233.5C 169.744,225.899 163.744,218.399 157.5,211C 139.637,204.225 121.97,197.225 104.5,190C 103.5,189.833 102.5,189.667 101.5,189.5C 97.2601,192.246 92.5934,193.579 87.5,193.5C 85.3331,192.802 83.4998,191.469 82,189.5C 78.0509,182.919 78.8842,177.086 84.5,172C 96.1037,168.645 101.77,172.812 101.5,184.5C 103.854,184.838 106.187,185.338 108.5,186C 125.546,193.734 142.88,200.567 160.5,206.5 Z"/></g>
<g><path style="opacity:1" fill="#1d8bbe" d="M 87.5,176.5 C 95.0454,175.387 98.0454,178.387 96.5,185.5C 90.4471,190.402 86.4471,189.235 84.5,182C 84.6846,179.624 85.6846,177.791 87.5,176.5 Z"/></g>
<g><path style="opacity:1" fill="#36c5ec" d="M 180.5,202.5 C 185.251,208.985 190.251,215.318 195.5,221.5C 206.146,222.499 216.813,222.832 227.5,222.5C 227.598,224.553 226.931,226.22 225.5,227.5C 214.813,227.832 204.146,227.499 193.5,226.5C 186.04,218.553 179.206,210.22 173,201.5C 172.184,200.177 171.017,199.511 169.5,199.5C 164.381,192.542 159.048,185.709 153.5,179C 149.5,178.667 145.5,178.333 141.5,178C 135.78,172.189 135.114,165.855 139.5,159C 146.752,154.84 152.919,156.007 158,162.5C 158.674,167.057 158.341,171.391 157,175.5C 164.735,184.725 172.568,193.725 180.5,202.5 Z"/></g>
<g><path style="opacity:1" fill="#1a8bbb" d="M 143.5,161.5 C 151.666,160.387 154.666,163.72 152.5,171.5C 146.762,175.027 142.762,173.694 140.5,167.5C 141.114,165.244 142.114,163.244 143.5,161.5 Z"/></g>
<g><path style="opacity:1" fill="#2ba1d3" d="M 336.5,231.5 C 335.087,228.781 334.42,225.781 334.5,222.5C 344.506,222.666 354.506,222.5 364.5,222C 378.376,206.365 391.876,190.532 405,174.5C 403.97,172.053 403.137,169.386 402.5,166.5C 402.743,162.849 404.41,160.016 407.5,158C 414.942,154.822 420.775,156.655 425,163.5C 424.967,174.854 419.134,180.021 407.5,179C 394.048,194.741 380.714,210.574 367.5,226.5C 357.188,227.499 346.855,227.832 336.5,227.5C 336.5,228.833 336.5,230.167 336.5,231.5 Z"/></g>
<g><path style="opacity:1" fill="#113760" d="M 410.5,161.5 C 418.762,160.425 421.428,163.758 418.5,171.5C 414.765,174.257 411.265,173.924 408,170.5C 406.927,166.9 407.76,163.9 410.5,161.5 Z"/></g>
<g><path style="opacity:1" fill="#2aa0d2" d="M 342.5,250.5 C 341.262,248.786 340.595,246.786 340.5,244.5C 350.172,244.666 359.839,244.5 369.5,244C 379.992,231.67 390.326,219.17 400.5,206.5C 419.635,198.597 438.968,191.264 458.5,184.5C 458.401,181.763 458.735,179.096 459.5,176.5C 460.596,174.897 461.93,173.397 463.5,172C 473.181,169.166 479.181,172.499 481.5,182C 479.749,191.39 474.082,195.057 464.5,193C 462.983,191.315 461.316,189.815 459.5,188.5C 442.046,195.894 424.379,202.728 406.5,209C 404.04,210.458 401.873,212.291 400,214.5C 391.402,226.268 382.235,237.601 372.5,248.5C 362.341,249.167 352.341,249.833 342.5,250.5 Z"/></g>
<g><path style="opacity:1" fill="#113860" d="M 466.5,176.5 C 475.487,175.665 477.82,179.165 473.5,187C 466.244,189.626 463.078,187.126 464,179.5C 464.698,178.309 465.531,177.309 466.5,176.5 Z"/></g>
<g><path style="opacity:1" fill="#143055" d="M 313.5,190.5 C 319.04,213.968 325.54,237.301 333,260.5C 341.718,282.858 350.885,304.858 360.5,326.5C 358.592,326.883 357.092,327.883 356,329.5C 354.887,328.24 354.72,327.073 355.5,326C 354.833,325.667 354.167,325.333 353.5,325C 357.096,322.564 357.263,319.731 354,316.5C 352.339,320.517 351.172,320.35 350.5,316C 350.667,315.167 350.833,314.333 351,313.5C 354.031,314.226 353.864,313.559 350.5,311.5C 349.065,313.401 347.398,313.734 345.5,312.5C 346.376,311.749 347.376,311.249 348.5,311C 345.389,310.242 342.556,309.075 340,307.5C 335.815,308.421 331.648,309.421 327.5,310.5C 324.833,313.833 322.167,317.167 319.5,320.5C 321.327,322.487 322.327,324.821 322.5,327.5C 324.288,327.215 325.955,327.548 327.5,328.5C 326.091,328.654 324.424,328.821 322.5,329C 319.075,330.598 318.742,332.598 321.5,335C 319.679,337.456 319.012,340.289 319.5,343.5C 320.873,343.657 322.207,343.49 323.5,343C 326.86,339.903 330.86,338.736 335.5,339.5C 336.167,342.167 336.833,344.833 337.5,347.5C 336.167,347.5 334.833,347.5 333.5,347.5C 333.5,348.833 333.5,350.167 333.5,351.5C 331.5,351.5 329.5,351.5 327.5,351.5C 327.5,354.167 327.5,356.833 327.5,359.5C 329.638,359.703 331.305,360.703 332.5,362.5C 334.652,366.272 335.486,370.272 335,374.5C 334.346,373.304 333.846,373.304 333.5,374.5C 334.689,375.429 336.022,375.762 337.5,375.5C 337.351,376.552 337.517,377.552 338,378.5C 340.376,379.376 341.876,381.042 342.5,383.5C 343.281,382.271 343.781,380.938 344,379.5C 347.097,382.86 348.264,386.86 347.5,391.5C 344.143,391.894 341.81,390.561 340.5,387.5C 340.167,387.667 339.833,387.833 339.5,388C 338.54,391.73 338.207,395.563 338.5,399.5C 342.833,399.5 347.167,399.5 351.5,399.5C 351.338,401.527 351.505,403.527 352,405.5C 352.772,406.849 353.939,407.682 355.5,408C 354.692,409.706 353.359,410.539 351.5,410.5C 351.083,413.079 351.75,415.246 353.5,417C 345.479,417.168 337.479,417.668 329.5,418.5C 332.366,419.208 335.2,419.875 338,420.5C 362.171,419.648 384.838,419.648 406,420.5C 408.74,419.718 411.574,419.218 414.5,419C 412.193,415.884 410.86,412.384 410.5,408.5C 414.829,413.508 418.829,418.841 422.5,424.5C 380.505,425.5 338.505,425.833 296.5,425.5C 296.5,424.167 296.5,422.833 296.5,421.5C 299.688,424.036 303.355,424.87 307.5,424C 310.994,420.676 314.661,417.509 318.5,414.5C 319.308,412.577 319.808,410.577 320,408.5C 322.489,406.345 324.156,403.678 325,400.5C 326.919,386.862 324.419,374.196 317.5,362.5C 314.182,358.682 310.682,355.015 307,351.5C 307.115,342.151 307.448,332.818 308,323.5C 306.796,319.427 304.796,315.761 302,312.5C 301.718,308.961 301.218,305.461 300.5,302C 302.429,300.306 303.429,298.139 303.5,295.5C 305.903,295.607 307.736,294.607 309,292.5C 311.234,285.633 313.401,278.8 315.5,272C 313.667,263.215 310.667,254.715 306.5,246.5C 302.783,242.396 298.283,239.729 293,238.5C 290.546,239.198 288.213,240.198 286,241.5C 285.601,241.272 285.435,240.938 285.5,240.5C 285.819,235.637 285.486,230.97 284.5,226.5C 284.5,223.5 284.5,220.5 284.5,217.5C 286.285,217.074 287.285,215.908 287.5,214C 286.833,212.333 286.167,210.667 285.5,209C 287.156,206.828 286.823,204.994 284.5,203.5C 282.632,203.946 280.799,204.279 279,204.5C 275.6,201.511 273.767,198.011 273.5,194C 274.253,192.513 275.086,192.346 276,193.5C 276.494,191.866 276.66,190.199 276.5,188.5C 276.205,186.265 276.539,184.265 277.5,182.5C 277.5,188.833 277.5,195.167 277.5,201.5C 279.735,201.795 281.735,201.461 283.5,200.5C 284.328,194.013 284.828,187.346 285,180.5C 285.333,182.833 285.667,185.167 286,187.5C 286.414,187.957 286.914,188.291 287.5,188.5C 290.533,186.204 293.867,184.37 297.5,183C 299.167,180.833 300.833,178.667 302.5,176.5C 304.998,175.062 307.164,175.396 309,177.5C 309.333,175.833 309.667,174.167 310,172.5C 310.333,176.833 310.667,181.167 311,185.5C 311.05,187.744 311.883,189.411 313.5,190.5 Z"/></g>
<g><path style="opacity:1" fill="#183057" d="M 409.5,273.5 C 409.953,272.542 410.619,271.708 411.5,271C 414.226,270.818 416.893,270.318 419.5,269.5C 418.349,268.269 417.183,268.269 416,269.5C 414.89,267.603 414.724,265.77 415.5,264C 414.552,263.517 413.552,263.351 412.5,263.5C 413.42,258.939 411.754,256.105 407.5,255C 409.116,254.385 410.449,253.385 411.5,252C 408.036,251.183 404.702,251.517 401.5,253C 403.087,253.862 404.754,254.529 406.5,255C 404.1,255.186 401.766,255.686 399.5,256.5C 397.89,258.495 396.557,260.661 395.5,263C 391.368,261.596 388.701,263.096 387.5,267.5C 386.575,266.359 385.741,266.359 385,267.5C 384.51,268.793 384.343,270.127 384.5,271.5C 382.158,271.496 380.158,270.663 378.5,269C 368.839,268.5 359.172,268.334 349.5,268.5C 360.659,267.669 371.993,267.169 383.5,267C 389.353,260.648 395.02,254.148 400.5,247.5C 415.5,246.167 430.5,246.167 445.5,247.5C 448.067,253.761 452.733,255.927 459.5,254C 465.823,251.189 468.323,246.355 467,239.5C 465.122,237.957 463.622,236.124 462.5,234C 452.9,229.745 446.9,232.578 444.5,242.5C 429.496,242.333 414.496,242.5 399.5,243C 393.013,249.321 386.679,255.821 380.5,262.5C 369.186,263.499 357.853,263.832 346.5,263.5C 344.165,259.505 342.831,255.172 342.5,250.5C 352.341,249.833 362.341,249.167 372.5,248.5C 382.235,237.601 391.402,226.268 400,214.5C 401.873,212.291 404.04,210.458 406.5,209C 424.379,202.728 442.046,195.894 459.5,188.5C 461.316,189.815 462.983,191.315 464.5,193C 474.082,195.057 479.749,191.39 481.5,182C 479.181,172.499 473.181,169.166 463.5,172C 461.93,173.397 460.596,174.897 459.5,176.5C 459.5,174.833 459.5,173.167 459.5,171.5C 461.5,171.167 463.5,170.833 465.5,170.5C 465.744,167.305 467.244,166.305 470,167.5C 473.457,166.341 476.957,165.341 480.5,164.5C 479.245,162.22 477.245,161.053 474.5,161C 475.167,160.333 475.833,159.667 476.5,159C 474.833,158.333 473.167,158.333 471.5,159C 468.149,162.206 464.816,162.206 461.5,159C 462,158.5 462.5,158 463,157.5C 464.399,157.501 465.899,157.835 467.5,158.5C 469.833,157.333 472.167,156.167 474.5,155C 471.59,153.247 468.924,153.747 466.5,156.5C 464.147,155.179 461.814,155.179 459.5,156.5C 459.833,155.833 460.167,155.167 460.5,154.5C 489.18,147.404 515.18,135.071 538.5,117.5C 540.097,143.489 531.43,165.989 512.5,185C 501.204,192.97 489.204,199.637 476.5,205C 460.1,211.352 443.766,217.685 427.5,224C 450.65,221.74 473.316,217.073 495.5,210C 498.557,208.534 501.39,206.7 504,204.5C 504.692,205.025 505.192,205.692 505.5,206.5C 496.98,237.719 477.313,257.886 446.5,267C 437.167,269 427.833,271 418.5,273C 415.518,273.498 412.518,273.665 409.5,273.5 Z"/></g>
<g><path style="opacity:1" fill="#1f79ac" d="M 175.5,233.5 C 172.09,233.616 170.756,231.95 171.5,228.5C 165.571,228.205 164.904,230.038 169.5,234C 167.5,235 165.5,236 163.5,237C 164.815,238.395 164.481,239.395 162.5,240C 163.598,240.77 163.598,241.603 162.5,242.5C 146.833,242.5 131.167,242.5 115.5,242.5C 113.846,233.496 108.512,230.33 99.5,233C 91.9167,239.494 91.5834,246.327 98.5,253.5C 102.01,255.697 105.676,256.03 109.5,254.5C 109.119,255.931 108.119,256.764 106.5,257C 108.883,257.065 109.55,257.898 108.5,259.5C 109.025,260.192 109.692,260.692 110.5,261C 108.563,261.122 107.23,261.955 106.5,263.5C 84.153,255.991 68.3197,241.324 59,219.5C 56.8909,215.064 55.7243,210.397 55.5,205.5C 67.3327,210.729 79.666,214.896 92.5,218C 105.474,220.198 118.474,221.864 131.5,223C 113.595,217.052 96.2617,210.218 79.5,202.5C 79.6107,201.883 79.944,201.383 80.5,201C 77.0626,200.351 76.896,199.851 80,199.5C 81.9065,201.584 83.5732,201.584 85,199.5C 88.5042,200.34 92.0042,200.007 95.5,198.5C 93.3633,197.92 91.53,196.92 90,195.5C 87.436,197.077 84.6026,198.077 81.5,198.5C 78.2643,197.378 77.9309,195.878 80.5,194C 82.8098,193.503 85.1432,193.337 87.5,193.5C 92.5934,193.579 97.2601,192.246 101.5,189.5C 102.5,189.667 103.5,189.833 104.5,190C 121.97,197.225 139.637,204.225 157.5,211C 163.744,218.399 169.744,225.899 175.5,233.5 Z"/></g>
<g><path style="opacity:1" fill="#38c3ec" d="M 162.5,242.5 C 168.291,249.462 174.291,256.295 180.5,263C 191.828,263.5 203.162,263.667 214.5,263.5C 214.818,266.481 213.818,268.815 211.5,270.5C 200.879,268.685 189.879,267.852 178.5,268C 172.167,261 165.833,254 159.5,247C 144.837,246.5 130.17,246.333 115.5,246.5C 114.655,250.015 112.655,252.681 109.5,254.5C 105.676,256.03 102.01,255.697 98.5,253.5C 91.5834,246.327 91.9167,239.494 99.5,233C 108.512,230.33 113.846,233.496 115.5,242.5C 131.167,242.5 146.833,242.5 162.5,242.5 Z"/></g>
<g><path style="opacity:0.031" fill="#a9bdd7" d="M 284.5,226.5 C 285.486,230.97 285.819,235.637 285.5,240.5C 282.287,240.81 279.287,240.477 276.5,239.5C 279.167,239.5 281.833,239.5 284.5,239.5C 284.5,235.167 284.5,230.833 284.5,226.5 Z"/></g>
<g><path style="opacity:1" fill="#1b7aaf" d="M 101.5,237.5 C 106.858,236.708 110.191,238.875 111.5,244C 110.756,247.72 108.423,249.553 104.5,249.5C 99.2105,248.696 97.3771,245.696 99,240.5C 100.045,239.627 100.878,238.627 101.5,237.5 Z"/></g>
<g><path style="opacity:1" fill="#1a71a4" d="M 169.5,199.5 C 171.017,199.511 172.184,200.177 173,201.5C 179.206,210.22 186.04,218.553 193.5,226.5C 204.146,227.499 214.813,227.832 225.5,227.5C 224.337,232.968 223.003,238.302 221.5,243.5C 211.577,244.64 201.577,244.807 191.5,244C 180.582,232.006 170.249,219.506 160.5,206.5C 160.097,203.479 158.764,200.979 156.5,199C 156.585,197.893 156.919,196.893 157.5,196C 158.931,195.535 160.097,194.701 161,193.5C 163.99,195.39 166.657,197.723 169,200.5C 169.399,200.272 169.565,199.938 169.5,199.5 Z"/></g>
<g><path style="opacity:1" fill="#2b9ed1" d="M 349.5,268.5 C 349.5,269.167 349.5,269.833 349.5,270.5C 348.264,268.351 347.264,266.018 346.5,263.5C 357.853,263.832 369.186,263.499 380.5,262.5C 386.679,255.821 393.013,249.321 399.5,243C 414.496,242.5 429.496,242.333 444.5,242.5C 446.9,232.578 452.9,229.745 462.5,234C 463.622,236.124 465.122,237.957 467,239.5C 468.323,246.355 465.823,251.189 459.5,254C 452.733,255.927 448.067,253.761 445.5,247.5C 430.5,246.167 415.5,246.167 400.5,247.5C 395.02,254.148 389.353,260.648 383.5,267C 371.993,267.169 360.659,267.669 349.5,268.5 Z"/></g>
<g><path style="opacity:1" fill="#123864" d="M 453.5,237.5 C 461.579,238.09 463.579,241.924 459.5,249C 452.22,250.719 449.053,247.885 450,240.5C 451.518,239.837 452.685,238.837 453.5,237.5 Z"/></g>
<g><path style="opacity:1" fill="#1a6ca0" d="M 175.5,233.5 C 180.155,238.16 184.488,243.16 188.5,248.5C 198.478,249.499 208.478,249.832 218.5,249.5C 218.5,250.5 218.5,251.5 218.5,252.5C 217.542,256.379 216.209,260.045 214.5,263.5C 203.162,263.667 191.828,263.5 180.5,263C 174.291,256.295 168.291,249.462 162.5,242.5C 163.598,241.603 163.598,240.77 162.5,240C 164.481,239.395 164.815,238.395 163.5,237C 165.5,236 167.5,235 169.5,234C 164.904,230.038 165.571,228.205 171.5,228.5C 170.756,231.95 172.09,233.616 175.5,233.5 Z"/></g>
<g><path style="opacity:1" fill="#192f56" d="M 409.5,273.5 C 424.469,278.366 439.803,278.7 455.5,274.5C 456.614,275.723 456.781,277.056 456,278.5C 434.729,303.497 407.729,318.164 375,322.5C 373.029,322.532 371.529,321.698 370.5,320C 370.833,319.667 371.167,319.333 371.5,319C 366.431,310.787 361.931,302.287 358,293.5C 354.883,285.903 352.05,278.236 349.5,270.5C 349.5,269.833 349.5,269.167 349.5,268.5C 359.172,268.334 368.839,268.5 378.5,269C 380.158,270.663 382.158,271.496 384.5,271.5C 384.343,270.127 384.51,268.793 385,267.5C 385.741,266.359 386.575,266.359 387.5,267.5C 388.701,263.096 391.368,261.596 395.5,263C 396.557,260.661 397.89,258.495 399.5,256.5C 401.766,255.686 404.1,255.186 406.5,255C 404.754,254.529 403.087,253.862 401.5,253C 404.702,251.517 408.036,251.183 411.5,252C 410.449,253.385 409.116,254.385 407.5,255C 411.754,256.105 413.42,258.939 412.5,263.5C 413.552,263.351 414.552,263.517 415.5,264C 414.724,265.77 414.89,267.603 416,269.5C 417.183,268.269 418.349,268.269 419.5,269.5C 416.893,270.318 414.226,270.818 411.5,271C 410.619,271.708 409.953,272.542 409.5,273.5 Z"/></g>
<g><path style="opacity:1" fill="#1c659a" d="M 211.5,270.5 C 205.519,286.969 198.685,302.969 191,318.5C 190.128,320.613 188.628,321.946 186.5,322.5C 154.6,318.115 127.933,304.115 106.5,280.5C 105.05,279.15 104.383,277.484 104.5,275.5C 112.152,276.275 119.818,276.942 127.5,277.5C 135.531,276.995 143.531,276.162 151.5,275C 139.304,272.02 126.971,269.353 114.5,267C 111.599,266.125 108.932,264.958 106.5,263.5C 107.23,261.955 108.563,261.122 110.5,261C 109.692,260.692 109.025,260.192 108.5,259.5C 109.55,257.898 108.883,257.065 106.5,257C 108.119,256.764 109.119,255.931 109.5,254.5C 112.655,252.681 114.655,250.015 115.5,246.5C 130.17,246.333 144.837,246.5 159.5,247C 165.833,254 172.167,261 178.5,268C 189.879,267.852 200.879,268.685 211.5,270.5 Z"/></g>
<g><path style="opacity:1" fill="#152f56" d="M 360.5,326.5 C 375.078,354.966 391.744,382.3 410.5,408.5C 410.86,412.384 412.193,415.884 414.5,419C 411.574,419.218 408.74,419.718 406,420.5C 384.838,419.648 362.171,419.648 338,420.5C 335.2,419.875 332.366,419.208 329.5,418.5C 337.479,417.668 345.479,417.168 353.5,417C 351.75,415.246 351.083,413.079 351.5,410.5C 353.359,410.539 354.692,409.706 355.5,408C 353.939,407.682 352.772,406.849 352,405.5C 351.505,403.527 351.338,401.527 351.5,399.5C 347.167,399.5 342.833,399.5 338.5,399.5C 338.207,395.563 338.54,391.73 339.5,388C 339.833,387.833 340.167,387.667 340.5,387.5C 341.81,390.561 344.143,391.894 347.5,391.5C 348.264,386.86 347.097,382.86 344,379.5C 343.781,380.938 343.281,382.271 342.5,383.5C 341.876,381.042 340.376,379.376 338,378.5C 337.517,377.552 337.351,376.552 337.5,375.5C 336.022,375.762 334.689,375.429 333.5,374.5C 333.846,373.304 334.346,373.304 335,374.5C 335.486,370.272 334.652,366.272 332.5,362.5C 331.305,360.703 329.638,359.703 327.5,359.5C 327.5,356.833 327.5,354.167 327.5,351.5C 329.5,351.5 331.5,351.5 333.5,351.5C 333.5,350.167 333.5,348.833 333.5,347.5C 334.833,347.5 336.167,347.5 337.5,347.5C 336.833,344.833 336.167,342.167 335.5,339.5C 330.86,338.736 326.86,339.903 323.5,343C 322.207,343.49 320.873,343.657 319.5,343.5C 319.012,340.289 319.679,337.456 321.5,335C 318.742,332.598 319.075,330.598 322.5,329C 324.424,328.821 326.091,328.654 327.5,328.5C 325.955,327.548 324.288,327.215 322.5,327.5C 322.327,324.821 321.327,322.487 319.5,320.5C 322.167,317.167 324.833,313.833 327.5,310.5C 331.648,309.421 335.815,308.421 340,307.5C 342.556,309.075 345.389,310.242 348.5,311C 347.376,311.249 346.376,311.749 345.5,312.5C 347.398,313.734 349.065,313.401 350.5,311.5C 353.864,313.559 354.031,314.226 351,313.5C 350.833,314.333 350.667,315.167 350.5,316C 351.172,320.35 352.339,320.517 354,316.5C 357.263,319.731 357.096,322.564 353.5,325C 354.167,325.333 354.833,325.667 355.5,326C 354.72,327.073 354.887,328.24 356,329.5C 357.092,327.883 358.592,326.883 360.5,326.5 Z"/></g>
<g><path style="opacity:1" fill="#135384" d="M 296.5,415.5 C 296.18,412.102 296.513,408.768 297.5,405.5C 299.155,401.889 301.155,398.389 303.5,395C 302.913,392.267 302.913,389.434 303.5,386.5C 303.21,384.048 302.544,381.715 301.5,379.5C 303.38,376.91 302.714,375.41 299.5,375C 298.274,372.473 296.608,370.306 294.5,368.5C 293.333,368.167 292.167,367.833 291,367.5C 283.517,368.21 276.017,368.71 268.5,369C 266.667,370.167 264.833,371.333 263,372.5C 261.75,378.54 260.25,384.54 258.5,390.5C 260.534,394.239 261.701,398.239 262,402.5C 263.155,403.338 264.322,404.338 265.5,405.5C 266.468,407.607 266.802,409.941 266.5,412.5C 266.562,417.076 265.895,421.409 264.5,425.5C 264.5,425.167 264.5,424.833 264.5,424.5C 264.5,421.5 264.5,418.5 264.5,415.5C 262.876,415.36 261.71,416.027 261,417.5C 260.184,416.177 259.017,415.511 257.5,415.5C 257.262,411.901 258.262,411.567 260.5,414.5C 261.242,412.65 262.242,411.984 263.5,412.5C 262.483,409.972 261.316,409.972 260,412.5C 255.564,408.064 251.897,403.064 249,397.5C 248.333,391.167 248.333,384.833 249,378.5C 249.521,375.126 250.854,372.126 253,369.5C 258.333,365.5 263,360.833 267,355.5C 267.687,353.432 267.52,351.432 266.5,349.5C 267.167,349.167 267.833,348.833 268.5,348.5C 260.459,337.903 259.793,326.903 266.5,315.5C 267.912,314.194 269.579,313.36 271.5,313C 272.399,311.348 273.399,309.848 274.5,308.5C 274.5,307.833 274.833,307.5 275.5,307.5C 279.833,307.5 284.167,307.5 288.5,307.5C 288.351,308.552 288.517,309.552 289,310.5C 289.179,308.576 289.346,306.909 289.5,305.5C 291.129,308.626 293.295,311.293 296,313.5C 297.701,315.9 298.534,318.567 298.5,321.5C 297.78,330.264 296.114,338.764 293.5,347C 294.49,350.154 294.657,353.321 294,356.5C 298.206,359.66 302.039,363.16 305.5,367C 306.448,367.483 307.448,367.649 308.5,367.5C 309.705,372.248 311.205,376.915 313,381.5C 315.929,396.455 311.096,407.955 298.5,416C 298.833,416.333 299.167,416.667 299.5,417C 298.212,417.239 297.212,416.739 296.5,415.5 Z M 274.5,308.5 C 278.833,308.5 283.167,308.5 287.5,308.5C 288.83,321.128 289.497,333.795 289.5,346.5C 283.5,346.5 277.5,346.5 271.5,346.5C 272.919,333.877 273.919,321.21 274.5,308.5 Z"/></g>
<g><path style="opacity:1" fill="#103963" d="M 276.5,228.5 C 276.5,232.167 276.5,235.833 276.5,239.5C 279.287,240.477 282.287,240.81 285.5,240.5C 285.435,240.938 285.601,241.272 286,241.5C 288.213,240.198 290.546,239.198 293,238.5C 298.283,239.729 302.783,242.396 306.5,246.5C 310.667,254.715 313.667,263.215 315.5,272C 313.401,278.8 311.234,285.633 309,292.5C 307.736,294.607 305.903,295.607 303.5,295.5C 303.429,298.139 302.429,300.306 300.5,302C 301.218,305.461 301.718,308.961 302,312.5C 304.796,315.761 306.796,319.427 308,323.5C 307.448,332.818 307.115,342.151 307,351.5C 310.682,355.015 314.182,358.682 317.5,362.5C 324.419,374.196 326.919,386.862 325,400.5C 324.156,403.678 322.489,406.345 320,408.5C 319.808,410.577 319.308,412.577 318.5,414.5C 314.661,417.509 310.994,420.676 307.5,424C 303.355,424.87 299.688,424.036 296.5,421.5C 296.5,419.5 296.5,417.5 296.5,415.5C 297.212,416.739 298.212,417.239 299.5,417C 299.167,416.667 298.833,416.333 298.5,416C 311.096,407.955 315.929,396.455 313,381.5C 311.205,376.915 309.705,372.248 308.5,367.5C 307.448,367.649 306.448,367.483 305.5,367C 302.039,363.16 298.206,359.66 294,356.5C 294.657,353.321 294.49,350.154 293.5,347C 296.114,338.764 297.78,330.264 298.5,321.5C 298.534,318.567 297.701,315.9 296,313.5C 293.295,311.293 291.129,308.626 289.5,305.5C 289.346,306.909 289.179,308.576 289,310.5C 288.517,309.552 288.351,308.552 288.5,307.5C 284.167,307.5 279.833,307.5 275.5,307.5C 278.962,306.518 282.629,306.185 286.5,306.5C 286.565,304.304 287.232,302.304 288.5,300.5C 306.428,288.654 310.928,272.988 302,253.5C 299.313,249.806 295.813,247.306 291.5,246C 285.866,244.957 280.2,244.124 274.5,243.5C 265.66,247.138 259.494,253.471 256,262.5C 253.237,276.016 256.904,287.35 267,296.5C 267.789,298.58 268.956,300.414 270.5,302C 269.505,306.331 267.005,309.498 263,311.5C 261.861,315.112 260.194,318.446 258,321.5C 257.768,325.555 257.268,329.555 256.5,333.5C 258.681,336.263 259.015,339.263 257.5,342.5C 259.508,345.556 260.341,348.889 260,352.5C 256.377,357.791 252.377,362.791 248,367.5C 245.006,373.097 243.172,379.097 242.5,385.5C 243.251,391.179 244.085,396.845 245,402.5C 247.889,408.385 251.555,413.719 256,418.5C 257.039,417.756 257.539,416.756 257.5,415.5C 259.017,415.511 260.184,416.177 261,417.5C 261.71,416.027 262.876,415.36 264.5,415.5C 264.5,418.5 264.5,421.5 264.5,424.5C 255.673,425.423 248.173,422.756 242,416.5C 239.863,410.421 237.529,404.421 235,398.5C 234.54,390.209 234.707,381.876 235.5,373.5C 236.675,373.719 237.675,373.386 238.5,372.5C 242.199,365.447 246.199,358.447 250.5,351.5C 252.667,340.865 253.834,330.198 254,319.5C 255.167,316.667 256.333,313.833 257.5,311C 259.851,308.981 261.851,306.648 263.5,304C 262.58,301.159 261.58,298.326 260.5,295.5C 248.552,282.938 246.219,268.605 253.5,252.5C 258.613,249.879 262.946,246.379 266.5,242C 269.231,240.67 271.898,240.17 274.5,240.5C 275.167,236.353 275.834,232.353 276.5,228.5 Z M 274.5,308.5 C 273.919,321.21 272.919,333.877 271.5,346.5C 277.5,346.5 283.5,346.5 289.5,346.5C 289.497,333.795 288.83,321.128 287.5,308.5C 283.167,308.5 278.833,308.5 274.5,308.5 Z M 276.5,259.5 C 279.29,259.751 282.29,259.751 285.5,259.5C 285.786,268.502 286.119,277.502 286.5,286.5C 283.167,286.5 279.833,286.5 276.5,286.5C 276.5,277.5 276.5,268.5 276.5,259.5 Z"/></g>
<g><path style="opacity:1" fill="#104573" d="M 275.5,307.5 C 274.833,307.5 274.5,307.833 274.5,308.5C 273.399,309.848 272.399,311.348 271.5,313C 269.579,313.36 267.912,314.194 266.5,315.5C 259.793,326.903 260.459,337.903 268.5,348.5C 267.833,348.833 267.167,349.167 266.5,349.5C 267.52,351.432 267.687,353.432 267,355.5C 263,360.833 258.333,365.5 253,369.5C 250.854,372.126 249.521,375.126 249,378.5C 248.333,384.833 248.333,391.167 249,397.5C 251.897,403.064 255.564,408.064 260,412.5C 261.316,409.972 262.483,409.972 263.5,412.5C 262.242,411.984 261.242,412.65 260.5,414.5C 258.262,411.567 257.262,411.901 257.5,415.5C 257.539,416.756 257.039,417.756 256,418.5C 251.555,413.719 247.889,408.385 245,402.5C 244.085,396.845 243.251,391.179 242.5,385.5C 243.172,379.097 245.006,373.097 248,367.5C 252.377,362.791 256.377,357.791 260,352.5C 260.341,348.889 259.508,345.556 257.5,342.5C 259.015,339.263 258.681,336.263 256.5,333.5C 257.268,329.555 257.768,325.555 258,321.5C 260.194,318.446 261.861,315.112 263,311.5C 267.005,309.498 269.505,306.331 270.5,302C 268.956,300.414 267.789,298.58 267,296.5C 256.904,287.35 253.237,276.016 256,262.5C 259.494,253.471 265.66,247.138 274.5,243.5C 280.2,244.124 285.866,244.957 291.5,246C 295.813,247.306 299.313,249.806 302,253.5C 310.928,272.988 306.428,288.654 288.5,300.5C 287.232,302.304 286.565,304.304 286.5,306.5C 282.629,306.185 278.962,306.518 275.5,307.5 Z M 276.5,259.5 C 276.5,268.5 276.5,277.5 276.5,286.5C 279.833,286.5 283.167,286.5 286.5,286.5C 286.119,277.502 285.786,268.502 285.5,259.5C 282.29,259.751 279.29,259.751 276.5,259.5 Z"/></g>
<g><path style="opacity:1" fill="#1a699f" d="M 274.5,253.5 C 293.924,251.781 301.757,260.447 298,279.5C 293.235,291.091 284.735,294.925 272.5,291C 263.082,282.502 260.915,272.336 266,260.5C 268.217,257.323 271.05,254.989 274.5,253.5 Z M 276.5,259.5 C 276.5,268.5 276.5,277.5 276.5,286.5C 279.833,286.5 283.167,286.5 286.5,286.5C 286.119,277.502 285.786,268.502 285.5,259.5C 282.29,259.751 279.29,259.751 276.5,259.5 Z"/></g>
<g><path style="opacity:1" fill="#15689e" d="M 296.5,415.5 C 296.5,417.5 296.5,419.5 296.5,421.5C 296.5,422.833 296.5,424.167 296.5,425.5C 295.432,415.984 294.432,406.317 293.5,396.5C 293.666,389.492 293.5,382.492 293,375.5C 292.5,375 292,374.5 291.5,374C 284.901,372.796 277.901,372.796 270.5,374C 268.795,377.168 267.962,380.668 268,384.5C 266.938,386.208 265.771,386.874 264.5,386.5C 267.112,391.565 267.112,396.565 264.5,401.5C 265.246,402.736 265.579,404.07 265.5,405.5C 264.322,404.338 263.155,403.338 262,402.5C 261.701,398.239 260.534,394.239 258.5,390.5C 260.25,384.54 261.75,378.54 263,372.5C 264.833,371.333 266.667,370.167 268.5,369C 276.017,368.71 283.517,368.21 291,367.5C 292.167,367.833 293.333,368.167 294.5,368.5C 296.608,370.306 298.274,372.473 299.5,375C 302.714,375.41 303.38,376.91 301.5,379.5C 302.544,381.715 303.21,384.048 303.5,386.5C 302.913,389.434 302.913,392.267 303.5,395C 301.155,398.389 299.155,401.889 297.5,405.5C 296.513,408.768 296.18,412.102 296.5,415.5 Z"/></g>
<g><path style="opacity:0.984" fill="#4586ad" d="M 293.5,396.5 C 292.509,389.677 291.842,382.677 291.5,375.5C 284.5,375.5 277.5,375.5 270.5,375.5C 269.394,388 268.06,400.333 266.5,412.5C 266.802,409.941 266.468,407.607 265.5,405.5C 265.579,404.07 265.246,402.736 264.5,401.5C 267.112,396.565 267.112,391.565 264.5,386.5C 265.771,386.874 266.938,386.208 268,384.5C 267.962,380.668 268.795,377.168 270.5,374C 277.901,372.796 284.901,372.796 291.5,374C 292,374.5 292.5,375 293,375.5C 293.5,382.492 293.666,389.492 293.5,396.5 Z"/></g>
</svg>
